<svg xmlns="http://www.w3.org/2000/svg" xmlns:xlink="http://www.w3.org/1999/xlink" width="661.333" height="200"><defs><clipPath id="A"><path d="M0 150h496V0H0z"/></clipPath><clipPath id="B"><path d="M23.894 122.428V34.76a7.54 7.54 0 0 1 7.515-7.514h0 95.181a7.54 7.54 0 0 1 7.515 7.514h0v87.668zm37.572-15.029a5.01 5.01 0 0 0 5.01 5.01h0 25.048a5.01 5.01 0 0 0 5.01-5.01h0a5.01 5.01 0 0 0-5.01-5.01h0-25.048a5.01 5.01 0 0 0-5.01 5.01"/></clipPath><clipPath id="C"><path d="M31.409 34.76v-.116h0l.001-.089h0v-.078h0v-.01h0l.001-.07h0v-.049h0v-.001-.05h0l.001-.008.001-.106h0v-.012-.035h0l.001-.012v-.022h0v-.058h0l.001-.046h0v-.017l.003-.145h0v-.005l.006-.237h0v-.05h0v-.002l.001-.015v-.02h0 0l.003-.115h0l.002-.034h0l.002-.072h0v-.004l.001-.046h0v-.012l.006-.154h0c0-.007 0-.013.001-.02h0l.003-.105h0v-.006l.002-.033h0v-.009-.005l.001-.013v-.004l.011-.267h0l.006-.142h0l.001-.011c.001-.008.001-.016.001-.024h0v-.007l.001-.006.002-.054h0l.002-.032h0v-.006l.001-.005v-.013l.006-.108h0c0-.013.001-.026.002-.039h0v-.003l.014-.239h0l.003-.059h0l.001-.008v-.005-.004l.008-.133h0v-.002l.001-.005v-.002l.02-.299h0v-.004l.005-.059h0l.003-.047h0l.002-.041h0l.001-.006h0l.101-1.184h0l.004-.038h0l.009-.094h0l.006-.056h0l.006-.063h0l.139-1.192h0l.002-.017.013-.103h0l.005-.038h0l.012-.086h0l.01-.076h0l.007-.054h0l.148-.998h0 94.002l.206 1.446h0l.001.008.012.094h0l.009.071h0l.008.064h0l.012.105h0l.005.04h0l.016.132h0l.002.019.071.652h0l.15 1.822h0l.001.003v.006.004l.008.134h0l.001.002v.005.002l.004.073h0l.007.114h0l.006.117h0v.001l.004.065h0l.001.012v.016l.001.008c.001.011.001.023.001.035h0l.001.007v.005l.001.005v.013.002l.003.056h0l.002.046h0c.001.008.001.016.001.024h0 .001v.009l.012.276h0v.003l.001.013v.004l.001.024h0v.005l.005.118h0v.011.009l.004.099h0l.002.038h0v.013l.003.087h0l.002.061h0v.001.01l.002.045h0l.002.086h0l.001.01v.011l.003.106h0v.017.008c.001.008.001.016.001.024h0v.003l.001.021h0l.002.089h0l.003.172h0l.001.021h0v.028h0v.006l.001.066h0l.001.007v.024h0v.001.027h0l.001.061h0v.005a.29.29 0 0 1 .001.029h0v.018.013c.001.013.001.026.001.038h0v.01l.001.113h0v.004l.001.05h0v.006.042h0l.001.072h0v.007.083h0v.087h0v.115h0c0 26.284-21.306 47.591-47.59 47.591h0c-26.283 0-47.591-21.307-47.591-47.591"/></clipPath><clipPath id="D"><path d="M23.894 122.428V34.76a7.54 7.54 0 0 1 7.515-7.514h0 95.181a7.54 7.54 0 0 1 7.515 7.514h0v87.668zm37.572-15.029a5.01 5.01 0 0 0 5.01 5.01h0 25.048a5.01 5.01 0 0 0 5.01-5.01h0a5.01 5.01 0 0 0-5.01-5.01h0-25.048a5.01 5.01 0 0 0-5.01 5.01h0"/></clipPath><clipPath id="E"><path d="M23.895 122.428h110.21V74.837H23.895z"/></clipPath><clipPath id="F"><path d="M23.894 122.428V34.76a7.54 7.54 0 0 1 7.515-7.514h0 95.181a7.54 7.54 0 0 1 7.515 7.514h0v87.668zm37.572-15.029a5.01 5.01 0 0 0 5.01 5.01h0 25.048a5.01 5.01 0 0 0 5.01-5.01h0a5.01 5.01 0 0 0-5.01-5.01h0-25.048a5.01 5.01 0 0 0-5.01 5.01"/></clipPath><clipPath id="G"><path d="M23.895 75.463h110.21v-.626H23.895z"/></clipPath><clipPath id="H"><path d="M23.895 74.837h110.21v-.626H23.895z"/></clipPath><clipPath id="I"><path d="M23.895 122.428h110.21v-20.665H23.895z"/></clipPath><clipPath id="J"><path d="M23.895 113.035h110.21V27.246H23.895z"/></clipPath><clipPath id="K"><path d="M23.894 122.428V34.76a7.54 7.54 0 0 1 7.515-7.514h0 95.181a7.54 7.54 0 0 1 7.515 7.514h0v87.668zm37.572-15.029a5.01 5.01 0 0 0 5.01 5.01h0 25.048a5.01 5.01 0 0 0 5.01-5.01h0a5.01 5.01 0 0 0-5.01-5.01h0-25.048a5.01 5.01 0 0 0-5.01 5.01h0"/></clipPath><radialGradient fx="0" fy="0" cx="0" cy="0" r="1" gradientUnits="userSpaceOnUse" gradientTransform="matrix(142.51974,0,0,142.51974,23.582891,122.83848)" spreadMethod="pad" id="L"><stop offset="0" stop-opacity=".1" stop-color="#fff"/><stop offset="1" stop-opacity="0" stop-color="#fff"/></radialGradient><mask maskUnits="userSpaceOnUse" x="0" y="0" width="1" height="1" id="M"><path d="M-32768 32767h65535v-65535h-65535z" fill="url(#L)" stroke="none"/></mask><radialGradient fx="0" fy="0" cx="0" cy="0" r="1" gradientUnits="userSpaceOnUse" gradientTransform="matrix(142.51974,0,0,142.51974,23.582891,122.83848)" spreadMethod="pad" id="N"><stop offset="0" stop-color="#fff"/></radialGradient><path id="O" d="M284.021 55.679c-.074 1.036-.549 2.022-1.425 2.96s-2.177 1.406-3.903 1.406c-1.258 0-2.35-.395-3.275-1.184s-1.56-1.85-1.905-3.182zm-4.884-11.84c-2.738 0-4.965.912-6.679 2.738s-2.571 4.131-2.571 6.919c0 2.639.832 4.909 2.497 6.808s3.793 2.849 6.383 2.849c2.689 0 4.841-.876 6.456-2.627s2.424-4.095 2.424-7.03l-.037-.63h-14.318c.097-1.825.708-3.268 1.831-4.328s2.435-1.591 3.94-1.591c2.442 0 4.095 1.036 4.958 3.108l3.034-1.258c-.592-1.406-1.566-2.584-2.923-3.534s-3.022-1.424-4.995-1.424"/><path id="P" d="M198.296 87.466c1.064 0 2.03.396 2.898 1.189s1.302 1.732 1.302 2.815c-.728.597-1.82.895-3.276.895-1.251 0-2.194-.27-2.828-.811s-.952-1.176-.952-1.904c0-.672.289-1.205.868-1.596s1.241-.588 1.988-.588m-.42-2.353c-1.456 0-2.674.42-3.654 1.26s-1.47 1.951-1.47 3.332c0 1.493.578 2.665 1.736 3.515s2.585 1.273 4.284 1.273c1.512 0 2.753-.279 3.724-.84v.393c0 1.008-.346 1.815-1.036 2.422s-1.54.91-2.548.91c-.747 0-1.424-.178-2.03-.532s-1.022-.84-1.246-1.456l-2.352 1.008c.317.821.942 1.582 1.876 2.282s2.165 1.05 3.696 1.05c1.754 0 3.21-.514 4.368-1.54s1.736-2.474 1.736-4.34v-8.288h-2.464v1.904h-.112c-1.027-1.568-2.53-2.353-4.508-2.353"/><path id="Q" d="M210.672 85.562h-2.576v13.72h2.576zm0 17.164c-.355-.354-.784-.532-1.288-.532s-.934.178-1.288.532-.533.784-.533 1.288.178.933.533 1.288a1.75 1.75 0 0 0 1.288.532c.504 0 .933-.177 1.288-.532s.532-.784.532-1.288-.178-.933-.532-1.288"/><path id="R" d="M265.412 94.074c-.057.784-.416 1.53-1.078 2.24s-1.649 1.065-2.954 1.065c-.952 0-1.779-.299-2.479-.897s-1.18-1.4-1.441-2.408zm-3.696-8.96c-2.073 0-3.757.69-5.054 2.072s-1.946 3.126-1.946 5.237c0 1.997.63 3.714 1.889 5.151s2.87 2.156 4.83 2.156c2.035 0 3.664-.663 4.886-1.988s1.834-3.099 1.834-5.319l-.027-.477h-10.836c.074-1.382.536-2.474 1.386-3.275s1.842-1.204 2.981-1.204c1.849 0 3.099.784 3.753 2.351l2.296-.952c-.448-1.063-1.186-1.955-2.212-2.674s-2.287-1.078-3.78-1.078"/></defs><g transform="matrix(1.333333 0 0 -1.333333 0 200)"><path d="M1.5 148.5h493V1.5H1.5z" fill="#fff"/><path d="M495 149H1V1h494zM494 2H2v146h492z" fill="#dadce0"/><g clip-path="url(#A)" fill="#5f6368"><path d="M173.133 43.839c-3.897 0-7.166 1.319-9.805 3.959s-3.959 5.932-3.959 9.879 1.32 7.239 3.959 9.879 5.908 3.959 9.805 3.959c3.996 0 7.239-1.444 9.731-4.329l-2.368-2.294c-1.801 2.244-4.255 3.367-7.363 3.367-2.886 0-5.322-.975-7.307-2.923s-2.979-4.502-2.979-7.659.993-5.711 2.979-7.659 4.421-2.923 7.307-2.923c3.182 0 5.896 1.282 8.14 3.848l2.368-2.369c-1.209-1.455-2.726-2.608-4.551-3.459s-3.811-1.276-5.957-1.276m16.946 27.084v-8.362l-.148-2.516h.148c.493.863 1.27 1.597 2.331 2.201a6.77 6.77 0 0 0 3.404.906c2.244 0 3.959-.69 5.143-2.071s1.776-3.232 1.776-5.551V44.431h-3.404v10.582c0 3.354-1.493 5.032-4.477 5.032-1.406 0-2.553-.561-3.441-1.684s-1.332-2.423-1.332-3.903V44.431h-3.404v26.492zm20.054-26.492h-3.404v18.13h3.256v-2.96h.148c.345.986 1.054 1.801 2.127 2.442s2.115.962 3.127.962 1.862-.148 2.553-.444l-1.295-3.182c-.444.172-1.049.259-1.813.259-1.234 0-2.325-.487-3.275-1.462s-1.424-2.251-1.424-3.829zm13.041 4.31c1.171-1.196 2.559-1.795 4.163-1.795s2.99.599 4.162 1.795 1.758 2.78 1.758 4.755-.586 3.558-1.758 4.754-2.559 1.795-4.162 1.795-2.992-.599-4.163-1.795-1.757-2.781-1.757-4.754.586-3.559 1.757-4.755m-2.534 11.655c1.751 1.837 3.983 2.756 6.697 2.756s4.945-.919 6.697-2.756 2.627-4.138 2.627-6.9-.876-5.064-2.627-6.901-3.984-2.756-6.697-2.756-4.946.918-6.697 2.756-2.627 4.137-2.627 6.901.875 5.062 2.627 6.9m18.759-15.965v18.13h3.256v-2.516h.148c.518.864 1.314 1.597 2.387 2.201s2.139.907 3.2.907c2.812 0 4.723-1.16 5.735-3.478 1.481 2.318 3.59 3.478 6.327 3.478 2.147 0 3.762-.685 4.847-2.053s1.628-3.226 1.628-5.569v-11.1h-3.403v10.582c0 1.825-.333 3.12-1 3.885s-1.678 1.147-3.034 1.147c-1.332 0-2.436-.568-3.311-1.702a6.19 6.19 0 0 1-1.314-3.885V44.431h-3.404v10.582c0 1.825-.333 3.12-.999 3.885s-1.677 1.147-3.034 1.147c-1.332 0-2.436-.568-3.311-1.702a6.19 6.19 0 0 1-1.314-3.885V44.431z"/><use xlink:href="#O"/><path d="M328.865 70.923l-7.067-26.492h-3.479l-5.697 17.464h-.149l-5.698-17.464h-3.477l-7.364 26.492h3.552l5.588-20.831h.147l5.736 17.279h3.181l5.736-17.279h.147l5.291 20.831zm13.727-15.244c-.074 1.036-.549 2.022-1.425 2.96s-2.177 1.406-3.903 1.406c-1.258 0-2.35-.395-3.275-1.184s-1.56-1.85-1.905-3.182zm-4.884-11.84c-2.738 0-4.965.912-6.679 2.738s-2.571 4.131-2.571 6.919c0 2.639.832 4.909 2.497 6.808s3.793 2.849 6.383 2.849c2.689 0 4.841-.876 6.456-2.627s2.424-4.095 2.424-7.03l-.037-.63h-14.318c.097-1.825.708-3.268 1.831-4.328s2.435-1.591 3.94-1.591c2.442 0 4.095 1.036 4.958 3.108l3.034-1.258c-.592-1.406-1.566-2.584-2.923-3.534s-3.022-1.424-4.995-1.424m20.646 3.107c1.579 0 2.936.599 4.07 1.795s1.702 2.78 1.702 4.755-.567 3.557-1.702 4.754-2.491 1.795-4.07 1.795c-1.604 0-2.966-.592-4.088-1.777s-1.683-2.774-1.683-4.772.56-3.59 1.683-4.774a5.42 5.42 0 0 1 4.088-1.776m.556-3.107c-1.382 0-2.621.295-3.719.887s-1.918 1.332-2.461 2.22h-.147V44.43h-3.256v26.493h3.403V62.56l-.147-2.515h.147c.543.887 1.363 1.628 2.461 2.219s2.337.888 3.719.888c2.342 0 4.366-.925 6.067-2.774s2.554-4.145 2.554-6.882-.852-5.032-2.554-6.883-3.725-2.774-6.067-2.774m26.823 0c-1.924 0-3.805.629-5.643 1.887s-3.04 3.021-3.607 5.291l3.108 1.258c.371-1.456 1.128-2.683 2.276-3.682s2.435-1.498 3.866-1.498c1.48 0 2.744.389 3.793 1.165s1.572 1.832 1.572 3.164c0 1.479-.524 2.62-1.572 3.422s-2.708 1.548-4.977 2.239c-2.343.739-4.12 1.695-5.328 2.867s-1.812 2.67-1.812 4.495c0 1.9.752 3.553 2.257 4.958s3.464 2.11 5.882 2.11c2.245 0 4.071-.562 5.476-1.684s2.318-2.349 2.738-3.681l-3.108-1.295c-.222.838-.771 1.615-1.647 2.331s-2.003 1.073-3.384 1.073c-1.308 0-2.424-.364-3.349-1.092s-1.388-1.634-1.388-2.72c0-.986.426-1.819 1.277-2.497s2.102-1.289 3.756-1.831l3.274-1.221c.875-.395 1.763-.919 2.664-1.573s1.578-1.467 2.035-2.442.685-2.103.685-3.385-.266-2.43-.796-3.441-1.234-1.813-2.11-2.406a10.54 10.54 0 0 0-2.83-1.35c-1.011-.308-2.047-.462-3.108-.462m19.315.296c-1.899 0-3.349.505-4.348 1.517s-1.498 2.442-1.498 4.292v9.509h-3.182v3.108h3.182v5.55h3.404v-5.55h4.44v-3.108h-4.44v-9.25c0-1.974.814-2.961 2.442-2.961.616 0 1.134.099 1.554.297l1.184-2.924c-.74-.32-1.653-.48-2.738-.48m9.194 4.606c1.172-1.196 2.559-1.795 4.163-1.795s2.99.599 4.162 1.795 1.758 2.78 1.758 4.755-.587 3.558-1.758 4.754-2.559 1.795-4.162 1.795-2.991-.599-4.163-1.795-1.757-2.781-1.757-4.754.585-3.559 1.757-4.755m-2.534 11.655c1.751 1.837 3.983 2.756 6.697 2.756s4.945-.919 6.696-2.756 2.627-4.138 2.627-6.9-.875-5.064-2.627-6.901-3.983-2.756-6.696-2.756-4.946.918-6.697 2.756-2.627 4.137-2.627 6.901.875 5.062 2.627 6.9m22.162-15.965h-3.403v18.13h3.256v-2.96h.147c.346.986 1.055 1.801 2.128 2.442s2.115.962 3.127.962 1.861-.148 2.553-.444l-1.295-3.182c-.445.172-1.049.259-1.814.259-1.233 0-2.325-.487-3.274-1.462s-1.425-2.251-1.425-3.829zm22.015 11.248c-.074 1.036-.549 2.022-1.425 2.96s-2.177 1.406-3.903 1.406c-1.258 0-2.35-.395-3.275-1.184s-1.56-1.85-1.905-3.182zm-4.884-11.84c-2.738 0-4.965.912-6.679 2.738s-2.571 4.131-2.571 6.919c0 2.639.832 4.909 2.497 6.808s3.793 2.849 6.383 2.849c2.689 0 4.841-.876 6.456-2.627s2.424-4.095 2.424-7.03l-.037-.63h-14.318c.097-1.825.708-3.268 1.831-4.328s2.435-1.591 3.94-1.591c2.442 0 4.095 1.036 4.958 3.108l3.034-1.258c-.592-1.406-1.566-2.584-2.923-3.534s-3.022-1.424-4.995-1.424M167.02 93.402h6.664l-3.276 9.044h-.112zm-5.684-7.84l7.56 20.048h2.912l7.56-20.048h-2.856l-1.932 5.432h-8.428l-1.96-5.432zm22.624 0l-5.544 13.72h2.8l4.032-10.64h.056l4.088 10.64h2.744l-5.6-13.72z"/><use xlink:href="#P"/><use xlink:href="#Q"/><path d="M216.607 85.562h-2.576v20.048h2.576zm7.757 1.904c1.064 0 2.03.396 2.898 1.189s1.302 1.732 1.302 2.815c-.728.597-1.82.895-3.276.895-1.251 0-2.194-.27-2.828-.811s-.952-1.176-.952-1.904c0-.672.289-1.205.868-1.596s1.241-.588 1.988-.588m-.42-2.353c-1.456 0-2.674.42-3.654 1.26s-1.47 1.951-1.47 3.332c0 1.493.578 2.665 1.736 3.515s2.585 1.273 4.284 1.273c1.512 0 2.753-.279 3.724-.84v.393c0 1.008-.346 1.815-1.036 2.422s-1.54.91-2.548.91c-.747 0-1.424-.178-2.03-.532s-1.022-.84-1.246-1.456l-2.352 1.008c.317.821.942 1.582 1.876 2.282s2.165 1.05 3.696 1.05c1.754 0 3.21-.514 4.368-1.54s1.736-2.474 1.736-4.34v-8.288h-2.464v1.904h-.112c-1.027-1.568-2.53-2.353-4.508-2.353m16.828 2.353c1.194 0 2.221.452 3.08 1.357s1.288 2.105 1.288 3.599-.43 2.692-1.288 3.598-1.886 1.358-3.08 1.358c-1.213 0-2.245-.448-3.094-1.345s-1.274-2.099-1.274-3.611.425-2.717 1.274-3.612 1.881-1.344 3.094-1.344m.42-2.353c-1.045 0-1.983.225-2.814.672s-1.452 1.009-1.862 1.681h-.112v-1.904h-2.464v20.048h2.576v-6.329l-.112-1.903h.112c.41.672 1.031 1.232 1.862 1.68s1.769.672 2.814.672c1.773 0 3.304-.701 4.592-2.1s1.931-3.137 1.931-5.208-.642-3.809-1.931-5.208-2.819-2.101-4.592-2.101m11.311.449h-2.575v20.048h2.575z"/><use xlink:href="#R"/><path d="M279.467 85.562h-2.576v13.72h2.576zm0 17.164c-.355-.354-.784-.532-1.288-.532s-.934.178-1.288.532-.533.784-.533 1.288.178.933.533 1.288a1.75 1.75 0 0 0 1.288.532c.504 0 .933-.177 1.288-.532s.532-.784.532-1.288-.178-.933-.532-1.288m5.823-3.444v-1.903h.111c.374.652.962 1.208 1.765 1.666a5.12 5.12 0 0 0 2.576.685c1.698 0 2.996-.522 3.892-1.568s1.344-2.445 1.344-4.199v-8.401h-2.577v8.008c0 2.538-1.129 3.809-3.387 3.809-1.064 0-1.932-.425-2.604-1.275s-1.009-1.834-1.009-2.954v-7.588h-2.575v13.72zm24.807-13.944c-1.437 0-2.534.382-3.29 1.147s-1.134 1.849-1.134 3.249v7.196h-2.408v2.351h2.408v4.201h2.576v-4.201h3.36V96.93h-3.36v-7c0-1.494.617-2.24 1.848-2.24.467 0 .858.074 1.176.223l.896-2.212c-.56-.242-1.251-.363-2.072-.363m6.691 20.272v-6.328l-.111-1.903h.111c.374.652.962 1.208 1.765 1.666a5.11 5.11 0 0 0 2.576.685c1.698 0 2.996-.522 3.891-1.568s1.344-2.446 1.344-4.199v-8.401h-2.576v8.008c0 2.538-1.129 3.809-3.388 3.809-1.063 0-1.931-.425-2.603-1.275s-1.009-1.834-1.009-2.954v-7.588h-2.575v20.048zm22.513-11.536c-.057.784-.416 1.53-1.078 2.24s-1.649 1.065-2.954 1.065c-.952 0-1.779-.299-2.479-.897s-1.18-1.4-1.441-2.408zm-3.696-8.96c-2.073 0-3.757.69-5.054 2.072s-1.946 3.126-1.946 5.237c0 1.997.63 3.714 1.889 5.151s2.87 2.156 4.83 2.156c2.035 0 3.664-.663 4.886-1.988s1.834-3.099 1.834-5.319l-.027-.477h-10.836c.074-1.382.536-2.474 1.386-3.275s1.842-1.204 2.981-1.204c1.849 0 3.099.784 3.753 2.351l2.296-.952c-.448-1.063-1.186-1.955-2.212-2.674s-2.287-1.078-3.78-1.078"/></g><g clip-path="url(#B)"><path d="M23.895 122.428h110.211V27.246H23.895z" fill="#eee"/><path d="M91.524 112.409H66.476a5.01 5.01 0 0 1-5.01-5.01 5.01 5.01 0 0 1 5.01-5.009h25.048a5.01 5.01 0 0 1 5.01 5.009 5.01 5.01 0 0 1-5.01 5.01" fill="#fff"/></g><g clip-path="url(#C)"><path d="M38.967 82.351V23.946h21.297L79 56.395h47.591v25.956zm0 0V23.946h21.297L79 56.395h47.591v25.956z" fill="#db4437"/><path d="M31.409-12.831h45.299L97.736 8.197V23.94l-37.472.006-28.855 49.489zm0 0h45.299L97.736 8.197V23.94l-37.472.006-28.855 49.489z" fill="#0f9d58"/><path d="M79 56.396l18.736-32.449-21.022-36.778h49.877v69.227zm0 0l18.736-32.449-21.022-36.778h49.877v69.227z" fill="#ffcd40"/><path d="M79 56.396a21.64 21.64 0 0 0 21.635-21.636A21.64 21.64 0 0 0 79 13.125 21.64 21.64 0 0 0 57.365 34.76 21.64 21.64 0 0 0 79 56.396" fill="#f1f1f1"/><path d="M79 52.068c9.559 0 17.308-7.749 17.308-17.309A17.31 17.31 0 0 0 79 17.452a17.31 17.31 0 0 0-17.308 17.307c0 9.56 7.749 17.309 17.308 17.309" fill="#4285f4"/></g><g clip-path="url(#D)"><g clip-path="url(#E)" opacity=".05"><path d="M23.895 122.428h110.211V74.837H23.895z" fill="#212121"/></g></g><g clip-path="url(#F)"><g clip-path="url(#G)" opacity=".02"><path d="M23.895 75.463h110.211v-.626H23.895z" fill="#212121"/></g><g clip-path="url(#H)" opacity=".05"><path d="M23.895 74.837h110.211v-.626H23.895z" fill="#fff"/></g><g clip-path="url(#I)" opacity=".02"><path d="M23.895 121.801h110.211v.626H23.895zm67.629-19.411H66.476a5 5 0 0 0-4.991 4.696c-.012-.107-.019-.207-.019-.313a5.01 5.01 0 0 1 5.01-5.01h25.048a5.01 5.01 0 0 1 5.01 5.01c0 .106-.007.206-.019.313a5 5 0 0 0-4.991-4.696" fill="#212121"/></g><g clip-path="url(#J)" opacity=".1"><path d="M126.591 27.872H31.409a7.54 7.54 0 0 0-7.514 7.515v-.627a7.54 7.54 0 0 1 7.514-7.514h95.182a7.54 7.54 0 0 1 7.515 7.514v.627a7.54 7.54 0 0 0-7.515-7.515m-60.115 84.537h25.048a5 5 0 0 0 4.991-4.697l.019.313a5.01 5.01 0 0 1-5.01 5.01H66.476a5.01 5.01 0 0 1-5.01-5.01 2.53 2.53 0 0 1 .02-.313 5 5 0 0 0 4.99 4.697" fill="#231f20"/></g></g><g clip-path="url(#K)"><g mask="url(#M)"><path d="M23.894 122.428V34.76a7.54 7.54 0 0 1 7.515-7.514h0 95.181a7.54 7.54 0 0 1 7.515 7.514h0v87.668zm37.572-15.029a5.01 5.01 0 0 0 5.01 5.01h0 25.048a5.01 5.01 0 0 0 5.01-5.01h0a5.01 5.01 0 0 0-5.01-5.01h0-25.048a5.01 5.01 0 0 0-5.01 5.01h0" fill="url(#N)"/></g></g></g></svg>